<?xml version="1.0" encoding="UTF-8"?>
<svg id="Layer_1" data-name="Layer 1" xmlns="http://www.w3.org/2000/svg" version="1.1" viewBox="0 0 1366 472.7">
  <defs>
    <style>
      .cls-1 {
        fill: #e4e4e4;
        stroke-width: 0px;
      }
    </style>
  </defs>
  <path class="cls-1" d="M63.1,472.7c-18.4,0-33.5-5.8-45.4-17.4-11.8-11.6-17.8-27.1-17.8-46.4s5.9-36.7,17.8-53.6c11.8-16.9,28-32.1,48.7-45.7,20.6-13.6,44-24.5,70.3-32.9,5.7-1.8,8.6-5.5,8.6-11.2v-59.8c0-21-3.3-36-9.9-45-6.6-9-15.6-13.5-26.9-13.5s-20.9,4.9-29.9,14.8c-9,9.9-15.5,26.4-19.4,49.6-2.2,14-6.9,24.2-14.1,30.6-7.2,6.4-14.6,9.5-22,9.5-12.3,0-18.4-6.1-18.4-18.4s3.6-25.3,10.9-37.8c7.2-12.5,16.8-23.9,28.6-34.2,11.8-10.3,24.8-18.5,38.8-24.6,14-6.1,28-9.2,42.1-9.2,43.4,0,65.1,25.2,65.1,75.6v201.2c0,18.4,4.6,27.6,13.8,27.6s10.9-3.8,15.8-11.5c4.8-7.7,7.2-20.7,7.2-39.1s2.8-10.5,8.6-10.5,7.9,3.7,7.9,11.2c0,32-5.6,55.1-16.8,69.4-11.2,14.2-23.8,21.4-37.8,21.4s-18.9-4.3-25-12.8c-6.1-8.5-10.3-18.7-12.5-30.6-.4-4.4-2.3-6.7-5.6-6.9s-6.5,1.9-9.5,6.2c-10.5,14.5-21.3,25.4-32.2,32.9-11,7.5-24.5,11.2-40.8,11.2h0ZM80.9,442.4c11.4,0,21.9-4,31.6-12.2,9.6-8.1,17.5-19,23.7-32.5,6.1-13.6,9.2-28.9,9.2-46v-48c0-8.3-4.6-10.7-13.8-7.2-26.7,9.6-47.4,22.9-62.1,39.8-14.7,16.9-22,37.1-22,60.8s11.2,45.4,33.5,45.4h0Z"/>
  <path class="cls-1" d="M362.2,472.7c-4,0-6.8-2.4-8.5-7.2l-87.4-289.9c-3.1-10.5-6-17.3-8.9-20.4-2.9-3.1-7.3-5.3-13.5-6.6l-9.9-2c-5.7-1.3-8.6-4.2-8.6-8.6s3.1-6.6,9.2-6.6h108.5c6.1,0,9.2,2.2,9.2,6.6s-2.9,7.7-8.5,8.6l-10.5,1.3c-10.5,1.3-17.1,3.8-19.7,7.6-2.6,3.7-2.6,10.4,0,20.1l54.6,190c1.3,4.8,3.5,7.2,6.6,7.2s5.3-2.4,6.6-7.2l53.2-178.1c3.5-11.8,4.5-20.7,3-26.6-1.5-5.9-7.8-9.8-18.7-11.5l-13.8-2.6c-5.7-1.3-8.5-4.2-8.5-8.6s3.1-6.6,9.2-6.6h83.5c6.1,0,9.2,2.4,9.2,7.2s-2.6,7.5-7.9,9.2l-5.9,2c-6.6,2.2-12.2,6.1-16.8,11.8-4.6,5.7-9.1,15.6-13.5,29.6l-83.5,274.1c-1.8,4.8-4.6,7.2-8.5,7.2h0Z"/>
  <path class="cls-1" d="M564,472.7c-18.4,0-33.5-5.8-45.4-17.4-11.8-11.6-17.8-27.1-17.8-46.4s5.9-36.7,17.8-53.6c11.8-16.9,28-32.1,48.7-45.7,20.6-13.6,44-24.5,70.3-32.9,5.7-1.8,8.5-5.5,8.5-11.2v-59.8c0-21-3.3-36-9.9-45-6.6-9-15.6-13.5-27-13.5s-20.9,4.9-29.9,14.8c-9,9.9-15.5,26.4-19.4,49.6-2.2,14-6.9,24.2-14.1,30.6-7.2,6.4-14.6,9.5-22,9.5-12.3,0-18.4-6.1-18.4-18.4s3.6-25.3,10.9-37.8c7.2-12.5,16.8-23.9,28.6-34.2,11.8-10.3,24.8-18.5,38.8-24.6,14-6.1,28-9.2,42.1-9.2,43.4,0,65.1,25.2,65.1,75.6v201.2c0,18.4,4.6,27.6,13.8,27.6s11-3.8,15.8-11.5c4.8-7.7,7.2-20.7,7.2-39.1s2.8-10.5,8.5-10.5,7.9,3.7,7.9,11.2c0,32-5.6,55.1-16.8,69.4-11.2,14.2-23.8,21.4-37.8,21.4s-18.8-4.3-25-12.8c-6.1-8.5-10.3-18.7-12.5-30.6-.4-4.4-2.3-6.7-5.6-6.9-3.3-.2-6.5,1.9-9.5,6.2-10.5,14.5-21.3,25.4-32.2,32.9-11,7.5-24.5,11.2-40.8,11.2h0ZM581.8,442.4c11.4,0,21.9-4,31.5-12.2,9.6-8.1,17.5-19,23.7-32.5,6.1-13.6,9.2-28.9,9.2-46v-48c0-8.3-4.6-10.7-13.8-7.2-26.7,9.6-47.4,22.9-62.1,39.8-14.7,16.9-22,37.1-22,60.8s11.2,45.4,33.5,45.4h0Z"/>
  <path class="cls-1" d="M767.2,466.7c-6.6,0-9.9-2.4-9.9-7.2s2.8-6.6,8.5-7.9l7.9-1.3c9.2-1.8,15.2-4.5,18.1-8.2,2.8-3.7,4.3-10.2,4.3-19.4v-220.9c0-7.9-1.2-13.2-3.6-16.1-2.4-2.9-6.7-4.7-12.8-5.6l-13.8-2c-5.7-.4-8.5-2.9-8.5-7.2s3.5-5.9,10.5-7.2c13.6-2.2,24-5.7,31.2-10.5,7.2-4.8,14.8-10.7,22.7-17.8,4-3.9,7.2-5.9,9.9-5.9,4,0,5.9,2.6,5.9,7.9v29.6c0,3.9,1.4,6.5,4.3,7.6,2.8,1.1,6-.1,9.5-3.6,17.5-16.6,33-28,46.3-34.2,13.4-6.1,27.5-9.2,42.4-9.2s35.5,6.9,47.3,20.7c11.8,13.8,17.8,34.1,17.8,60.8v213.6c0,9.2,1.4,15.7,4.3,19.4,2.8,3.7,8.9,6.2,18.1,7.6l14.5,2c4.8.9,7.2,3.5,7.2,7.9s-2.6,7.2-7.9,7.2h-110.4c-6.1,0-9.2-2.4-9.2-7.2s2.4-7,7.2-7.9l9.2-1.3c9.2-1.3,15.2-3.9,18.1-7.9,2.8-3.9,4.3-10.5,4.3-19.7v-206.4c0-21.5-4-36.6-11.8-45.4-7.9-8.8-19.1-13.1-33.5-13.1s-26.6,4.1-37.8,12.2c-11.2,8.1-20,18.9-26.6,32.2-6.6,13.4-9.9,28.2-9.9,44.4v176.2c0,9.2,1.4,15.8,4.3,19.7,2.8,4,8.9,6.4,18.1,7.2l17.8,2c4.8.9,7.2,3.3,7.2,7.2s-3.3,7.9-9.9,7.9h-111.1,0Z"/>
  <path class="cls-1" d="M1153,472.7c-15.3,0-27.9-5.4-37.8-16.1-9.9-10.7-14.8-28.4-14.8-52.9v-245.9c0-5.3-2.6-7.9-7.9-7.9h-19.1c-7,0-10.5-2.6-10.5-7.9s2-6.6,5.9-9.2c14.5-10.1,26.1-20.9,34.8-32.5,8.8-11.6,16.4-27.5,23-47.7,3.1-9.2,6.8-13.8,11.2-13.8s7.2,3.5,7.2,10.5v73c0,6.1,3.1,9.2,9.2,9.2h42.7c7,0,10.5,3.1,10.5,9.2s-3.5,9.2-10.5,9.2h-42.7c-6.1,0-9.2,3.1-9.2,9.2v245.2c0,9.6,1.5,17.2,4.6,22.7,3.1,5.5,8.8,8.2,17.1,8.2s16.8-4.6,22.7-13.8c5.9-9.2,9.8-24.1,11.5-44.7.9-6.1,3.7-9.2,8.6-9.2s7.9,3.3,7.9,9.9c-1.3,33.8-8.2,58.1-20.7,73-12.5,14.9-27.1,22.4-43.7,22.4h0Z"/>
  <path class="cls-1" d="M1246.4,466.7c-6.6,0-9.9-2.4-9.9-7.2s2.8-6.6,8.6-7.9l7.9-1.3c10.9-1.8,18-4.5,21-8.2,3.1-3.7,4.6-10.2,4.6-19.4v-220.9c0-7.9-1.2-13.2-3.6-16.1-2.4-2.9-6.7-4.7-12.8-5.6l-13.8-2c-5.7-.4-8.6-2.9-8.6-7.2s3.5-5.9,10.5-7.2c13.6-2.2,24.5-5.7,32.9-10.5,8.3-4.8,16.4-10.7,24.3-17.8,3.9-3.9,7.2-5.9,9.9-5.9,3.9,0,5.9,2.6,5.9,7.9v285.3c0,9.2,1.3,15.8,3.9,19.7,2.6,4,7.7,6.4,15.1,7.2l16.4,2c4.8.9,7.2,3.3,7.2,7.2s-3.3,7.9-9.9,7.9h-109.8ZM1301.6,69c-9.2,0-17-3.3-23.3-9.9-6.4-6.6-9.5-14.9-9.5-25s3.2-18.3,9.5-24.6c6.3-6.3,14.1-9.5,23.3-9.5s16.9,3.2,23,9.5c6.1,6.4,9.2,14.6,9.2,24.6s-3.1,18.4-9.2,25c-6.1,6.6-13.8,9.9-23,9.9Z"/>
</svg>