<?xml version="1.0" encoding="UTF-8"?><svg id="Layer_1" xmlns="http://www.w3.org/2000/svg" viewBox="0 0 1366 472.66"><defs><style>.cls-1{fill:#383637;stroke-width:0px;}</style></defs><path class="cls-1" d="M63.11,472.66c-18.41,0-33.53-5.81-45.36-17.42-11.83-11.61-17.75-27.06-17.75-46.35s5.92-36.7,17.75-53.58c11.83-16.87,28.04-32.1,48.65-45.69,20.6-13.58,44.04-24.54,70.34-32.87,5.69-1.75,8.55-5.48,8.55-11.17v-59.82c0-21.03-3.29-36.04-9.86-45.03-6.57-8.98-15.56-13.48-26.95-13.48s-20.93,4.93-29.91,14.79c-8.99,9.86-15.45,26.41-19.39,49.63-2.2,14.03-6.9,24.22-14.13,30.57-7.23,6.36-14.57,9.53-22.02,9.53-12.28,0-18.41-6.13-18.41-18.41s3.62-25.31,10.85-37.8,16.76-23.88,28.59-34.18c11.83-10.29,24.75-18.51,38.79-24.65,14.02-6.13,28.04-9.2,42.07-9.2,43.39,0,65.08,25.21,65.08,75.6v201.16c0,18.41,4.6,27.61,13.81,27.61,5.69,0,10.95-3.83,15.78-11.51,4.82-7.66,7.23-20.71,7.23-39.11,0-7.01,2.84-10.52,8.55-10.52,5.26,0,7.89,3.73,7.89,11.18,0,31.99-5.59,55.12-16.77,69.35-11.17,14.25-23.78,21.37-37.8,21.37-10.52,0-18.85-4.27-24.98-12.82-6.14-8.55-10.3-18.73-12.49-30.57-.44-4.37-2.3-6.68-5.59-6.9-3.29-.22-6.47,1.87-9.53,6.24-10.52,14.46-21.26,25.42-32.21,32.87-10.96,7.45-24.55,11.18-40.76,11.18ZM80.86,442.42c11.39,0,21.91-4.05,31.55-12.16,9.63-8.11,17.52-18.95,23.66-32.54,6.13-13.58,9.21-28.93,9.21-46.02v-47.99c0-8.32-4.6-10.73-13.81-7.23-26.74,9.64-47.44,22.91-62.12,39.77-14.69,16.88-22.02,37.14-22.02,60.81,0,30.24,11.17,45.36,33.53,45.36Z"/><path class="cls-1" d="M362.21,472.66c-3.95,0-6.8-2.41-8.55-7.23l-87.43-289.9c-3.07-10.52-6.03-17.31-8.87-20.38-2.86-3.06-7.34-5.26-13.48-6.57l-9.86-1.97c-5.69-1.31-8.55-4.16-8.55-8.55s3.07-6.57,9.2-6.57h108.47c6.13,0,9.2,2.2,9.2,6.57,0,4.83-2.86,7.67-8.55,8.55l-10.52,1.31c-10.52,1.31-17.09,3.84-19.72,7.56-2.63,3.73-2.63,10.42,0,20.05l54.56,189.98c1.31,4.83,3.5,7.23,6.57,7.23s5.26-2.4,6.57-7.23l53.25-178.15c3.5-11.83,4.49-20.71,2.96-26.62-1.54-5.92-7.79-9.75-18.74-11.51l-13.8-2.63c-5.7-1.31-8.55-4.16-8.55-8.55s3.06-6.57,9.2-6.57h83.49c6.13,0,9.2,2.41,9.2,7.23,0,4.39-2.63,7.46-7.89,9.2l-5.92,1.97c-6.57,2.2-12.16,6.14-16.76,11.83-4.6,5.7-9.1,15.56-13.47,29.58l-83.49,274.13c-1.76,4.82-4.6,7.23-8.55,7.23Z"/><path class="cls-1" d="M564.03,472.66c-18.41,0-33.53-5.81-45.36-17.42-11.83-11.61-17.75-27.06-17.75-46.35s5.92-36.7,17.75-53.58c11.83-16.87,28.04-32.1,48.65-45.69,20.6-13.58,44.04-24.54,70.34-32.87,5.69-1.75,8.55-5.48,8.55-11.17v-59.82c0-21.03-3.29-36.04-9.86-45.03-6.57-8.98-15.56-13.48-26.95-13.48s-20.93,4.93-29.91,14.79c-8.99,9.86-15.45,26.41-19.39,49.63-2.2,14.03-6.9,24.22-14.13,30.57-7.23,6.36-14.57,9.53-22.02,9.53-12.28,0-18.41-6.13-18.41-18.41s3.62-25.31,10.85-37.8,16.76-23.88,28.59-34.18c11.83-10.29,24.75-18.51,38.79-24.65,14.02-6.13,28.04-9.2,42.07-9.2,43.39,0,65.08,25.21,65.08,75.6v201.16c0,18.41,4.6,27.61,13.81,27.61,5.69,0,10.95-3.83,15.78-11.51,4.82-7.66,7.23-20.71,7.23-39.11,0-7.01,2.84-10.52,8.55-10.52,5.26,0,7.89,3.73,7.89,11.18,0,31.99-5.59,55.12-16.77,69.35-11.17,14.25-23.78,21.37-37.8,21.37-10.52,0-18.85-4.27-24.98-12.82-6.14-8.55-10.3-18.73-12.49-30.57-.44-4.37-2.3-6.68-5.59-6.9-3.29-.22-6.47,1.87-9.53,6.24-10.52,14.46-21.26,25.42-32.21,32.87-10.96,7.45-24.55,11.18-40.76,11.18ZM581.78,442.42c11.39,0,21.91-4.05,31.55-12.16,9.63-8.11,17.52-18.95,23.66-32.54,6.13-13.58,9.21-28.93,9.21-46.02v-47.99c0-8.32-4.6-10.73-13.81-7.23-26.74,9.64-47.44,22.91-62.12,39.77-14.69,16.88-22.02,37.14-22.02,60.81,0,30.24,11.17,45.36,33.53,45.36Z"/><path class="cls-1" d="M767.15,466.74c-6.57,0-9.86-2.4-9.86-7.23,0-3.94,2.85-6.57,8.55-7.89l7.89-1.31c9.2-1.75,15.22-4.49,18.08-8.22,2.85-3.72,4.27-10.19,4.27-19.39v-220.88c0-7.89-1.21-13.25-3.62-16.11-2.41-2.85-6.69-4.7-12.82-5.59l-13.81-1.97c-5.7-.43-8.55-2.85-8.55-7.23,0-3.5,3.5-5.92,10.52-7.23,13.58-2.19,23.99-5.69,31.23-10.52,7.23-4.82,14.79-10.74,22.68-17.75,3.95-3.95,7.23-5.92,9.86-5.92,3.95,0,5.92,2.63,5.92,7.89v29.58c0,3.94,1.42,6.47,4.27,7.56,2.85,1.1,6.02-.1,9.53-3.61,17.52-16.65,32.97-28.04,46.34-34.18,13.36-6.13,27.5-9.2,42.4-9.2,19.72,0,35.5,6.9,47.33,20.71,11.83,13.81,17.75,34.08,17.75,60.81v213.65c0,9.2,1.42,15.67,4.27,19.39,2.84,3.73,8.87,6.25,18.08,7.56l14.46,1.97c4.82.88,7.23,3.51,7.23,7.89,0,4.83-2.63,7.23-7.89,7.23h-110.44c-6.14,0-9.2-2.4-9.2-7.23,0-4.38,2.4-7.01,7.23-7.89l9.2-1.31c9.2-1.31,15.22-3.94,18.08-7.89,2.85-3.94,4.27-10.52,4.27-19.72v-206.42c0-21.47-3.95-36.59-11.83-45.36-7.89-8.76-19.06-13.15-33.53-13.15s-26.62,4.06-37.8,12.16c-11.18,8.11-20.05,18.85-26.62,32.21-6.57,13.37-9.86,28.16-9.86,44.37v176.18c0,9.2,1.42,15.78,4.27,19.72,2.84,3.95,8.87,6.36,18.08,7.23l17.75,1.97c4.82.88,7.23,3.29,7.23,7.23,0,5.26-3.29,7.89-9.86,7.89h-111.1Z"/><path class="cls-1" d="M1153.02,472.66c-15.35,0-27.94-5.37-37.8-16.11-9.86-10.74-14.79-28.37-14.79-52.92v-245.86c0-5.26-2.63-7.89-7.89-7.89h-19.06c-7.02,0-10.52-2.63-10.52-7.89,0-3.5,1.97-6.57,5.92-9.2,14.46-10.08,26.07-20.92,34.84-32.54,8.76-11.61,16.43-27.5,23.01-47.66,3.06-9.21,6.79-13.81,11.17-13.81,4.82,0,7.23,3.51,7.23,10.52v72.97c0,6.14,3.06,9.2,9.2,9.2h42.73c7.01,0,10.52,3.07,10.52,9.2s-3.51,9.2-10.52,9.2h-42.73c-6.14,0-9.2,3.07-9.2,9.21v245.2c0,9.64,1.53,17.2,4.6,22.68,3.06,5.49,8.76,8.22,17.09,8.22,9.21,0,16.76-4.6,22.68-13.81,5.92-9.2,9.75-24.1,11.51-44.7.87-6.13,3.72-9.2,8.55-9.2,5.26,0,7.89,3.29,7.89,9.86-1.32,33.75-8.22,58.08-20.71,72.97-12.49,14.9-27.07,22.35-43.71,22.35Z"/><path class="cls-1" d="M1246.36,466.74c-6.57,0-9.86-2.4-9.86-7.23,0-3.94,2.85-6.57,8.55-7.89l7.89-1.31c10.95-1.75,17.96-4.49,21.04-8.22,3.06-3.72,4.6-10.19,4.6-19.39v-220.88c0-7.89-1.21-13.25-3.61-16.11-2.41-2.85-6.69-4.7-12.82-5.59l-13.8-1.97c-5.7-.43-8.55-2.85-8.55-7.23,0-3.5,3.5-5.92,10.52-7.23,13.58-2.19,24.54-5.69,32.87-10.52,8.32-4.82,16.43-10.74,24.32-17.75,3.94-3.95,7.23-5.92,9.86-5.92,3.95,0,5.92,2.63,5.92,7.89v285.3c0,9.2,1.31,15.78,3.94,19.72,2.63,3.95,7.66,6.36,15.12,7.23l16.43,1.97c4.82.88,7.23,3.29,7.23,7.23,0,5.26-3.29,7.89-9.86,7.89h-109.78ZM1301.58,69.03c-9.2,0-16.99-3.29-23.34-9.86-6.36-6.57-9.53-14.89-9.53-24.98s3.18-18.29,9.53-24.65c6.35-6.35,14.13-9.53,23.34-9.53s16.87,3.18,23.01,9.53c6.13,6.36,9.2,14.58,9.2,24.65s-3.07,18.41-9.2,24.98c-6.14,6.57-13.81,9.86-23.01,9.86Z"/></svg>